<?xml version="1.0" encoding="UTF-8"?>
<svg style="background-color:transparent;" preserveAspectRatio="xMinYMin meet" height="480" width="970" viewBox="178 154 990 500" xmlns:xlink="http://www.w3.org/1999/xlink" xmlns="http://www.w3.org/2000/svg" ><defs><g id="linkshape" class="svglink"><rect width="26" height="25.705463" x="0" y="0" rx="26" style="fill:#fff;stroke:none;"/><path d="m12.96972,3.89162c-1.46202,0.0926 -1.96087,1.3485 -1.97318,2.16807c0.061,1.06359 0.95974,1.43208 1.91556,1.67657c0.86622,0.20718 2.53795,-0.39401 2.58252,-1.25608c0.1196,-2.10236 -0.96772,-2.51327 -2.5249,-2.58856 z" style="fill:none;stroke:#00642A;stroke-width:1.33538628"/><path d="m13.33742,8.10908c-0.00095,4.26823 0.42843,9.17994 0.13576,13.07847" style="fill:none;stroke:#00642A;stroke-width:1.33538628"/><path d="m5.79976,15.83298c1.21269,7.46208 13.76733,8.39403 14.45306,0.22481" style="fill:none;stroke:#00642A;stroke-width:1.33538628"/><path d="m20.53438,12.70151c0.36453,0.65146 1.3076,1.62194 1.50505,2.23541c0.14125,0.40272 0.14865,0.52327 -0.60832,0.50239c-0.84553,0.0577 -2.5409,0.2236 -3.30599,0.13608c-0.42486,-0.124 -0.38393,-0.3733 -0.15689,-0.81348c0.4456,-0.73802 0.83742,-1.23374 1.36025,-2.03069c0.44058,-0.5668 0.8427,-0.6095 1.2059,-0.0297 z" style="fill:none;stroke:#00642A;stroke-width:1.33538628"/><path d="m6.65205,12.98495c0.46781,0.5895 0.69238,0.72549 1.30269,1.52036c0.2394,0.21964 0.28495,0.66561 -0.15744,0.62957c-1.02897,0.0804 -2.31388,0.096 -3.23877,0.112c-0.84264,0.0267 -0.72894,-0.1367 -0.46065,-0.75013c0.29098,-0.54544 0.6673,-0.89767 1.08185,-1.59111c0.54713,-0.81778 0.90943,-0.7521 1.47232,0.0793 z" style="fill:none;stroke:#00642A;stroke-width:1.33538628"/></g><style type="text/css">.svg-txt-center tspan {text-anchor: middle;} .svg-txt-right tspan {text-anchor: end;} svg a {fill: #0088cc;} .dark-shape a {fill:#B8ECFF;}</style></defs><g><g/><g><g class="shapebase"><g transform="matrix(1.00000000,0.00000000,0.00000000,1.00000000,721.00000000,267.00000000)"><path fill="rgb(204, 204, 255)" fill-opacity="0" stroke="rgb(153, 204, 255)" stroke-opacity="1" stroke-width="3.0" stroke-linecap="butt" stroke-linejoin="miter" stroke-miterlimit="4" path="" stroke-dasharray="none" d="m12.52123599774367,15.528930021847607c23.019813110477603,-28.367278447305267 95.61957177224156,-16.69340129327086 99.16504941145615,26.69032315869658c3.538599894036668,43.38210420531178 -35.415229357372816,66.74589895527163 -76.14523630097854,48.38866637130294c-40.72312919842782,-18.34443263538898 -43.42608305334795,-49.92806271884605 -23.019813110477603,-75.07898952999952z" fill-rule="evenodd"/></g><rect fill="rgb(0, 0, 0)" fill-opacity="0" stroke="none" stroke-opacity="0" stroke-width="1" stroke-linecap="butt" stroke-linejoin="miter" stroke-miterlimit="4" x="721" y="267" width="112" height="97" ry="0" rx="0" fill-rule="evenodd"/><g transform="matrix(1.00000000,0.00000000,0.00000000,1.00000000,721.00000000,267.00000000)"><g class="shapebase"/></g></g><g class="shapebase"><g transform="matrix(1.00000000,0.00000000,0.00000000,1.00000000,924.00000000,265.00000000)"><path fill="rgb(204, 204, 255)" fill-opacity="0" stroke="rgb(153, 204, 255)" stroke-opacity="1" stroke-width="3.0" stroke-linecap="butt" stroke-linejoin="miter" stroke-miterlimit="4" path="" stroke-dasharray="none" d="m12.52123599774367,15.528930021847607c23.019813110477603,-28.367278447305267 95.61957177224156,-16.69340129327086 99.16504941145615,26.69032315869658c3.538599894036668,43.38210420531178 -35.415229357372816,66.74589895527163 -76.14523630097854,48.38866637130294c-40.72312919842782,-18.34443263538898 -43.42608305334795,-49.92806271884605 -23.019813110477603,-75.07898952999952z" fill-rule="evenodd"/></g><rect fill="rgb(0, 0, 0)" fill-opacity="0" stroke="none" stroke-opacity="0" stroke-width="1" stroke-linecap="butt" stroke-linejoin="miter" stroke-miterlimit="4" x="924" y="265" width="112" height="97" ry="0" rx="0" fill-rule="evenodd"/><g transform="matrix(1.00000000,0.00000000,0.00000000,1.00000000,924.00000000,265.00000000)"><g class="shapebase"/></g></g><g class="shapebase"><g transform="matrix(1.00000000,0.00000000,0.00000000,1.00000000,810.00000000,388.00000000)"><path fill="rgb(204, 204, 255)" fill-opacity="0" stroke="rgb(153, 204, 255)" stroke-opacity="1" stroke-width="3.0" stroke-linecap="butt" stroke-linejoin="miter" stroke-miterlimit="4" path="" stroke-dasharray="none" d="m12.52123599774367,15.528930021847607c23.019813110477603,-28.367278447305267 95.61957177224156,-16.69340129327086 99.16504941145615,26.69032315869658c3.538599894036668,43.38210420531178 -35.415229357372816,66.74589895527163 -76.14523630097854,48.38866637130294c-40.72312919842782,-18.34443263538898 -43.42608305334795,-49.92806271884605 -23.019813110477603,-75.07898952999952z" fill-rule="evenodd"/></g><rect fill="rgb(0, 0, 0)" fill-opacity="0" stroke="none" stroke-opacity="0" stroke-width="1" stroke-linecap="butt" stroke-linejoin="miter" stroke-miterlimit="4" x="810" y="388" width="112" height="97" ry="0" rx="0" fill-rule="evenodd"/><g transform="matrix(1.00000000,0.00000000,0.00000000,1.00000000,810.00000000,388.00000000)"><g class="shapebase"/></g></g><g class="shapebase"><g transform="matrix(1.00000000,0.00000000,0.00000000,1.00000000,500.00000000,263.00000000)"><path fill="rgb(204, 204, 255)" fill-opacity="0" stroke="rgb(51, 0, 255)" stroke-opacity="1" stroke-width="3.0" stroke-linecap="butt" stroke-linejoin="miter" stroke-miterlimit="4" path="" stroke-dasharray="none" d="m14.24731404740776,20.918868138487003c26.346046817159362,-38.3660221389015 109.436093839221,-22.577416136932463 113.49388231075541,36.097967280444024c4.049929866165661,58.673128569484255 -40.53256515064085,90.27229849694429 -87.14783549359605,65.44438310300102c-46.60741173758647,-24.81035979249662 -49.7009541516066,-67.52619826293109 -26.346046817159362,-101.54235038344505z" fill-rule="evenodd"/></g><rect fill="rgb(0, 0, 0)" fill-opacity="0" stroke="none" stroke-opacity="0" stroke-width="1" stroke-linecap="butt" stroke-linejoin="miter" stroke-miterlimit="4" x="500" y="263" width="128" height="131" ry="0" rx="0" fill-rule="evenodd"/><g transform="matrix(1.00000000,0.00000000,0.00000000,1.00000000,500.00000000,263.00000000)"><g class="shapebase"/></g></g><g class="shapebase"><g transform="matrix(1.00000000,0.00000000,0.00000000,1.00000000,737.00000000,312.00000000)"><path fill="rgb(204, 204, 255)" fill-opacity="0" stroke="rgb(51, 102, 0)" stroke-opacity="1" stroke-width="3.0" stroke-linecap="butt" stroke-linejoin="miter" stroke-miterlimit="4" path="" stroke-dasharray="none" d="m15.96821564650346,8.631771716970734c-0.4200064788514794,5.913600907312086 -10.090364146495801,10.46903363434256 -14.09550652823812,4.722328974733239c-4.0044012698960305,-5.744297347463044 -1.2602545235794307,-12.31867325561089 5.1395548208433,-13.228411963681607c6.398099086315911,-0.9105561643342946 9.328523501778452,3.2624100179586932 8.95595170739482,8.50608298894837z" fill-rule="evenodd"/><path fill="rgb(51, 102, 0)" fill-opacity="1" stroke="rgb(51, 102, 0)" stroke-opacity="1" stroke-width="3.0" stroke-linecap="butt" stroke-linejoin="miter" stroke-miterlimit="4" path="" stroke-dasharray="none" style="stroke:none;" d="m3.590801500193157,6.284217554559472c0.7552288221394381,-3.7649332101624133 7.02036268711963,-3.299298536435478 8.627388204089772,-0.09152935486649373c1.6070020082676433,3.206713568756178 -0.005289458062329724,5.3647981045957005 -3.5529466119937507,5.956127943008493c-3.7225090059451675,0.6212152670094967 -5.9205785668000335,-1.6480368840128121 -5.074441592096021,-5.864598588142z" fill-rule="evenodd"/></g><rect fill="rgb(0, 0, 0)" fill-opacity="0" stroke="none" stroke-opacity="0" stroke-width="1" stroke-linecap="butt" stroke-linejoin="miter" stroke-miterlimit="4" x="737" y="312" width="16" height="16" ry="0" rx="0" fill-rule="evenodd"/><g transform="matrix(1.00000000,0.00000000,0.00000000,1.00000000,737.00000000,312.00000000)"><g class="shapebase"/></g></g><g class="shapebase"><g transform="matrix(1.00000000,0.00000000,0.00000000,1.00000000,779.00000000,306.00000000)"><path fill="rgb(204, 204, 255)" fill-opacity="0" stroke="rgb(51, 102, 0)" stroke-opacity="1" stroke-width="3.0" stroke-linecap="butt" stroke-linejoin="miter" stroke-miterlimit="4" path="" stroke-dasharray="none" d="m15.96821564650346,8.631771716970734c-0.4200064788514794,5.913600907312086 -10.090364146495801,10.46903363434256 -14.09550652823812,4.722328974733239c-4.0044012698960305,-5.744297347463044 -1.2602545235794307,-12.31867325561089 5.1395548208433,-13.228411963681607c6.398099086315911,-0.9105561643342946 9.328523501778452,3.2624100179586932 8.95595170739482,8.50608298894837z" fill-rule="evenodd"/><path fill="rgb(51, 102, 0)" fill-opacity="1" stroke="rgb(51, 102, 0)" stroke-opacity="1" stroke-width="3.0" stroke-linecap="butt" stroke-linejoin="miter" stroke-miterlimit="4" path="" stroke-dasharray="none" style="stroke:none;" d="m3.590801500193157,6.284217554559472c0.7552288221394381,-3.7649332101624133 7.02036268711963,-3.299298536435478 8.627388204089772,-0.09152935486649373c1.6070020082676433,3.206713568756178 -0.005289458062329724,5.3647981045957005 -3.5529466119937507,5.956127943008493c-3.7225090059451675,0.6212152670094967 -5.9205785668000335,-1.6480368840128121 -5.074441592096021,-5.864598588142z" fill-rule="evenodd"/></g><rect fill="rgb(0, 0, 0)" fill-opacity="0" stroke="none" stroke-opacity="0" stroke-width="1" stroke-linecap="butt" stroke-linejoin="miter" stroke-miterlimit="4" x="779" y="306" width="16" height="16" ry="0" rx="0" fill-rule="evenodd"/><g transform="matrix(1.00000000,0.00000000,0.00000000,1.00000000,779.00000000,306.00000000)"><g class="shapebase"/></g></g><g class="shapebase"><g transform="matrix(1.00000000,0.00000000,0.00000000,1.00000000,775.00000000,277.00000000)"><path fill="rgb(204, 204, 255)" fill-opacity="0" stroke="rgb(51, 102, 0)" stroke-opacity="1" stroke-width="3.0" stroke-linecap="butt" stroke-linejoin="miter" stroke-miterlimit="4" path="" stroke-dasharray="none" d="m15.96821564650346,8.631771716970734c-0.4200064788514794,5.913600907312086 -10.090364146495801,10.46903363434256 -14.09550652823812,4.722328974733239c-4.0044012698960305,-5.744297347463044 -1.2602545235794307,-12.31867325561089 5.1395548208433,-13.228411963681607c6.398099086315911,-0.9105561643342946 9.328523501778452,3.2624100179586932 8.95595170739482,8.50608298894837z" fill-rule="evenodd"/><path fill="rgb(51, 102, 0)" fill-opacity="1" stroke="rgb(51, 102, 0)" stroke-opacity="1" stroke-width="3.0" stroke-linecap="butt" stroke-linejoin="miter" stroke-miterlimit="4" path="" stroke-dasharray="none" style="stroke:none;" d="m3.590801500193157,6.284217554559472c0.7552288221394381,-3.7649332101624133 7.02036268711963,-3.299298536435478 8.627388204089772,-0.09152935486649373c1.6070020082676433,3.206713568756178 -0.005289458062329724,5.3647981045957005 -3.5529466119937507,5.956127943008493c-3.7225090059451675,0.6212152670094967 -5.9205785668000335,-1.6480368840128121 -5.074441592096021,-5.864598588142z" fill-rule="evenodd"/></g><rect fill="rgb(0, 0, 0)" fill-opacity="0" stroke="none" stroke-opacity="0" stroke-width="1" stroke-linecap="butt" stroke-linejoin="miter" stroke-miterlimit="4" x="775" y="277" width="16" height="16" ry="0" rx="0" fill-rule="evenodd"/><g transform="matrix(1.00000000,0.00000000,0.00000000,1.00000000,775.00000000,277.00000000)"><g class="shapebase"/></g></g><g class="shapebase"><g transform="matrix(1.00000000,0.00000000,0.00000000,1.00000000,761.00000000,341.00000000)"><path fill="rgb(204, 204, 255)" fill-opacity="0" stroke="rgb(51, 102, 0)" stroke-opacity="1" stroke-width="3.0" stroke-linecap="butt" stroke-linejoin="miter" stroke-miterlimit="4" path="" stroke-dasharray="none" d="m15.96821564650346,8.631771716970734c-0.4200064788514794,5.913600907312086 -10.090364146495801,10.46903363434256 -14.09550652823812,4.722328974733239c-4.0044012698960305,-5.744297347463044 -1.2602545235794307,-12.31867325561089 5.1395548208433,-13.228411963681607c6.398099086315911,-0.9105561643342946 9.328523501778452,3.2624100179586932 8.95595170739482,8.50608298894837z" fill-rule="evenodd"/><path fill="rgb(51, 102, 0)" fill-opacity="1" stroke="rgb(51, 102, 0)" stroke-opacity="1" stroke-width="3.0" stroke-linecap="butt" stroke-linejoin="miter" stroke-miterlimit="4" path="" stroke-dasharray="none" style="stroke:none;" d="m3.590801500193157,6.284217554559472c0.7552288221394381,-3.7649332101624133 7.02036268711963,-3.299298536435478 8.627388204089772,-0.09152935486649373c1.6070020082676433,3.206713568756178 -0.005289458062329724,5.3647981045957005 -3.5529466119937507,5.956127943008493c-3.7225090059451675,0.6212152670094967 -5.9205785668000335,-1.6480368840128121 -5.074441592096021,-5.864598588142z" fill-rule="evenodd"/></g><rect fill="rgb(0, 0, 0)" fill-opacity="0" stroke="none" stroke-opacity="0" stroke-width="1" stroke-linecap="butt" stroke-linejoin="miter" stroke-miterlimit="4" x="761" y="341" width="16" height="16" ry="0" rx="0" fill-rule="evenodd"/><g transform="matrix(1.00000000,0.00000000,0.00000000,1.00000000,761.00000000,341.00000000)"><g class="shapebase"/></g></g><g class="shapebase"><g transform="matrix(1.00000000,0.00000000,0.00000000,1.00000000,802.00000000,325.00000000)"><path fill="rgb(204, 204, 255)" fill-opacity="0" stroke="rgb(51, 102, 0)" stroke-opacity="1" stroke-width="3.0" stroke-linecap="butt" stroke-linejoin="miter" stroke-miterlimit="4" path="" stroke-dasharray="none" d="m15.96821564650346,8.631771716970734c-0.4200064788514794,5.913600907312086 -10.090364146495801,10.46903363434256 -14.09550652823812,4.722328974733239c-4.0044012698960305,-5.744297347463044 -1.2602545235794307,-12.31867325561089 5.1395548208433,-13.228411963681607c6.398099086315911,-0.9105561643342946 9.328523501778452,3.2624100179586932 8.95595170739482,8.50608298894837z" fill-rule="evenodd"/><path fill="rgb(51, 102, 0)" fill-opacity="1" stroke="rgb(51, 102, 0)" stroke-opacity="1" stroke-width="3.0" stroke-linecap="butt" stroke-linejoin="miter" stroke-miterlimit="4" path="" stroke-dasharray="none" style="stroke:none;" d="m3.590801500193157,6.284217554559472c0.7552288221394381,-3.7649332101624133 7.02036268711963,-3.299298536435478 8.627388204089772,-0.09152935486649373c1.6070020082676433,3.206713568756178 -0.005289458062329724,5.3647981045957005 -3.5529466119937507,5.956127943008493c-3.7225090059451675,0.6212152670094967 -5.9205785668000335,-1.6480368840128121 -5.074441592096021,-5.864598588142z" fill-rule="evenodd"/></g><rect fill="rgb(0, 0, 0)" fill-opacity="0" stroke="none" stroke-opacity="0" stroke-width="1" stroke-linecap="butt" stroke-linejoin="miter" stroke-miterlimit="4" x="802" y="325" width="16" height="16" ry="0" rx="0" fill-rule="evenodd"/><g transform="matrix(1.00000000,0.00000000,0.00000000,1.00000000,802.00000000,325.00000000)"><g class="shapebase"/></g></g><g class="shapebase"><g transform="matrix(1.00000000,0.00000000,0.00000000,1.00000000,940.00000000,307.00000000)"><path fill="rgb(204, 204, 255)" fill-opacity="0" stroke="rgb(51, 102, 0)" stroke-opacity="1" stroke-width="3.0" stroke-linecap="butt" stroke-linejoin="miter" stroke-miterlimit="4" path="" stroke-dasharray="none" d="m15.96821564650346,8.631771716970734c-0.4200064788514794,5.913600907312086 -10.090364146495801,10.46903363434256 -14.09550652823812,4.722328974733239c-4.0044012698960305,-5.744297347463044 -1.2602545235794307,-12.31867325561089 5.1395548208433,-13.228411963681607c6.398099086315911,-0.9105561643342946 9.328523501778452,3.2624100179586932 8.95595170739482,8.50608298894837z" fill-rule="evenodd"/><path fill="rgb(51, 102, 0)" fill-opacity="1" stroke="rgb(51, 102, 0)" stroke-opacity="1" stroke-width="3.0" stroke-linecap="butt" stroke-linejoin="miter" stroke-miterlimit="4" path="" stroke-dasharray="none" style="stroke:none;" d="m3.590801500193157,6.284217554559472c0.7552288221394381,-3.7649332101624133 7.02036268711963,-3.299298536435478 8.627388204089772,-0.09152935486649373c1.6070020082676433,3.206713568756178 -0.005289458062329724,5.3647981045957005 -3.5529466119937507,5.956127943008493c-3.7225090059451675,0.6212152670094967 -5.9205785668000335,-1.6480368840128121 -5.074441592096021,-5.864598588142z" fill-rule="evenodd"/></g><rect fill="rgb(0, 0, 0)" fill-opacity="0" stroke="none" stroke-opacity="0" stroke-width="1" stroke-linecap="butt" stroke-linejoin="miter" stroke-miterlimit="4" x="940" y="307" width="16" height="16" ry="0" rx="0" fill-rule="evenodd"/><g transform="matrix(1.00000000,0.00000000,0.00000000,1.00000000,940.00000000,307.00000000)"><g class="shapebase"/></g></g><g class="shapebase"><g transform="matrix(1.00000000,0.00000000,0.00000000,1.00000000,972.00000000,330.00000000)"><path fill="rgb(204, 204, 255)" fill-opacity="0" stroke="rgb(51, 102, 0)" stroke-opacity="1" stroke-width="3.0" stroke-linecap="butt" stroke-linejoin="miter" stroke-miterlimit="4" path="" stroke-dasharray="none" d="m15.96821564650346,8.631771716970734c-0.4200064788514794,5.913600907312086 -10.090364146495801,10.46903363434256 -14.09550652823812,4.722328974733239c-4.0044012698960305,-5.744297347463044 -1.2602545235794307,-12.31867325561089 5.1395548208433,-13.228411963681607c6.398099086315911,-0.9105561643342946 9.328523501778452,3.2624100179586932 8.95595170739482,8.50608298894837z" fill-rule="evenodd"/><path fill="rgb(51, 102, 0)" fill-opacity="1" stroke="rgb(51, 102, 0)" stroke-opacity="1" stroke-width="3.0" stroke-linecap="butt" stroke-linejoin="miter" stroke-miterlimit="4" path="" stroke-dasharray="none" style="stroke:none;" d="m3.590801500193157,6.284217554559472c0.7552288221394381,-3.7649332101624133 7.02036268711963,-3.299298536435478 8.627388204089772,-0.09152935486649373c1.6070020082676433,3.206713568756178 -0.005289458062329724,5.3647981045957005 -3.5529466119937507,5.956127943008493c-3.7225090059451675,0.6212152670094967 -5.9205785668000335,-1.6480368840128121 -5.074441592096021,-5.864598588142z" fill-rule="evenodd"/></g><rect fill="rgb(0, 0, 0)" fill-opacity="0" stroke="none" stroke-opacity="0" stroke-width="1" stroke-linecap="butt" stroke-linejoin="miter" stroke-miterlimit="4" x="972" y="330" width="16" height="16" ry="0" rx="0" fill-rule="evenodd"/><g transform="matrix(1.00000000,0.00000000,0.00000000,1.00000000,972.00000000,330.00000000)"><g class="shapebase"/></g></g><g class="shapebase"><g transform="matrix(1.00000000,0.00000000,0.00000000,1.00000000,987.00000000,297.00000000)"><path fill="rgb(204, 204, 255)" fill-opacity="0" stroke="rgb(51, 102, 0)" stroke-opacity="1" stroke-width="3.0" stroke-linecap="butt" stroke-linejoin="miter" stroke-miterlimit="4" path="" stroke-dasharray="none" d="m15.96821564650346,8.631771716970734c-0.4200064788514794,5.913600907312086 -10.090364146495801,10.46903363434256 -14.09550652823812,4.722328974733239c-4.0044012698960305,-5.744297347463044 -1.2602545235794307,-12.31867325561089 5.1395548208433,-13.228411963681607c6.398099086315911,-0.9105561643342946 9.328523501778452,3.2624100179586932 8.95595170739482,8.50608298894837z" fill-rule="evenodd"/><path fill="rgb(51, 102, 0)" fill-opacity="1" stroke="rgb(51, 102, 0)" stroke-opacity="1" stroke-width="3.0" stroke-linecap="butt" stroke-linejoin="miter" stroke-miterlimit="4" path="" stroke-dasharray="none" style="stroke:none;" d="m3.590801500193157,6.284217554559472c0.7552288221394381,-3.7649332101624133 7.02036268711963,-3.299298536435478 8.627388204089772,-0.09152935486649373c1.6070020082676433,3.206713568756178 -0.005289458062329724,5.3647981045957005 -3.5529466119937507,5.956127943008493c-3.7225090059451675,0.6212152670094967 -5.9205785668000335,-1.6480368840128121 -5.074441592096021,-5.864598588142z" fill-rule="evenodd"/></g><rect fill="rgb(0, 0, 0)" fill-opacity="0" stroke="none" stroke-opacity="0" stroke-width="1" stroke-linecap="butt" stroke-linejoin="miter" stroke-miterlimit="4" x="987" y="297" width="16" height="16" ry="0" rx="0" fill-rule="evenodd"/><g transform="matrix(1.00000000,0.00000000,0.00000000,1.00000000,987.00000000,297.00000000)"><g class="shapebase"/></g></g><g class="shapebase"><g transform="matrix(1.00000000,0.00000000,0.00000000,1.00000000,961.00000000,280.00000000)"><path fill="rgb(204, 204, 255)" fill-opacity="0" stroke="rgb(51, 102, 0)" stroke-opacity="1" stroke-width="3.0" stroke-linecap="butt" stroke-linejoin="miter" stroke-miterlimit="4" path="" stroke-dasharray="none" d="m15.96821564650346,8.631771716970734c-0.4200064788514794,5.913600907312086 -10.090364146495801,10.46903363434256 -14.09550652823812,4.722328974733239c-4.0044012698960305,-5.744297347463044 -1.2602545235794307,-12.31867325561089 5.1395548208433,-13.228411963681607c6.398099086315911,-0.9105561643342946 9.328523501778452,3.2624100179586932 8.95595170739482,8.50608298894837z" fill-rule="evenodd"/><path fill="rgb(51, 102, 0)" fill-opacity="1" stroke="rgb(51, 102, 0)" stroke-opacity="1" stroke-width="3.0" stroke-linecap="butt" stroke-linejoin="miter" stroke-miterlimit="4" path="" stroke-dasharray="none" style="stroke:none;" d="m3.590801500193157,6.284217554559472c0.7552288221394381,-3.7649332101624133 7.02036268711963,-3.299298536435478 8.627388204089772,-0.09152935486649373c1.6070020082676433,3.206713568756178 -0.005289458062329724,5.3647981045957005 -3.5529466119937507,5.956127943008493c-3.7225090059451675,0.6212152670094967 -5.9205785668000335,-1.6480368840128121 -5.074441592096021,-5.864598588142z" fill-rule="evenodd"/></g><rect fill="rgb(0, 0, 0)" fill-opacity="0" stroke="none" stroke-opacity="0" stroke-width="1" stroke-linecap="butt" stroke-linejoin="miter" stroke-miterlimit="4" x="961" y="280" width="16" height="16" ry="0" rx="0" fill-rule="evenodd"/><g transform="matrix(1.00000000,0.00000000,0.00000000,1.00000000,961.00000000,280.00000000)"><g class="shapebase"/></g></g><g class="shapebase"><g transform="matrix(1.00000000,0.00000000,0.00000000,1.00000000,1005.00000000,320.00000000)"><path fill="rgb(204, 204, 255)" fill-opacity="0" stroke="rgb(51, 102, 0)" stroke-opacity="1" stroke-width="3.0" stroke-linecap="butt" stroke-linejoin="miter" stroke-miterlimit="4" path="" stroke-dasharray="none" d="m15.96821564650346,8.631771716970734c-0.4200064788514794,5.913600907312086 -10.090364146495801,10.46903363434256 -14.09550652823812,4.722328974733239c-4.0044012698960305,-5.744297347463044 -1.2602545235794307,-12.31867325561089 5.1395548208433,-13.228411963681607c6.398099086315911,-0.9105561643342946 9.328523501778452,3.2624100179586932 8.95595170739482,8.50608298894837z" fill-rule="evenodd"/><path fill="rgb(51, 102, 0)" fill-opacity="1" stroke="rgb(51, 102, 0)" stroke-opacity="1" stroke-width="3.0" stroke-linecap="butt" stroke-linejoin="miter" stroke-miterlimit="4" path="" stroke-dasharray="none" style="stroke:none;" d="m3.590801500193157,6.284217554559472c0.7552288221394381,-3.7649332101624133 7.02036268711963,-3.299298536435478 8.627388204089772,-0.09152935486649373c1.6070020082676433,3.206713568756178 -0.005289458062329724,5.3647981045957005 -3.5529466119937507,5.956127943008493c-3.7225090059451675,0.6212152670094967 -5.9205785668000335,-1.6480368840128121 -5.074441592096021,-5.864598588142z" fill-rule="evenodd"/></g><rect fill="rgb(0, 0, 0)" fill-opacity="0" stroke="none" stroke-opacity="0" stroke-width="1" stroke-linecap="butt" stroke-linejoin="miter" stroke-miterlimit="4" x="1005" y="320" width="16" height="16" ry="0" rx="0" fill-rule="evenodd"/><g transform="matrix(1.00000000,0.00000000,0.00000000,1.00000000,1005.00000000,320.00000000)"><g class="shapebase"/></g></g><g class="shapebase"><g transform="matrix(1.00000000,0.00000000,0.00000000,1.00000000,847.00000000,428.00000000)"><path fill="rgb(204, 204, 255)" fill-opacity="0" stroke="rgb(51, 102, 0)" stroke-opacity="1" stroke-width="3.0" stroke-linecap="butt" stroke-linejoin="miter" stroke-miterlimit="4" path="" stroke-dasharray="none" d="m15.96821564650346,8.631771716970734c-0.4200064788514794,5.913600907312086 -10.090364146495801,10.46903363434256 -14.09550652823812,4.722328974733239c-4.0044012698960305,-5.744297347463044 -1.2602545235794307,-12.31867325561089 5.1395548208433,-13.228411963681607c6.398099086315911,-0.9105561643342946 9.328523501778452,3.2624100179586932 8.95595170739482,8.50608298894837z" fill-rule="evenodd"/><path fill="rgb(51, 102, 0)" fill-opacity="1" stroke="rgb(51, 102, 0)" stroke-opacity="1" stroke-width="3.0" stroke-linecap="butt" stroke-linejoin="miter" stroke-miterlimit="4" path="" stroke-dasharray="none" style="stroke:none;" d="m3.590801500193157,6.284217554559472c0.7552288221394381,-3.7649332101624133 7.02036268711963,-3.299298536435478 8.627388204089772,-0.09152935486649373c1.6070020082676433,3.206713568756178 -0.005289458062329724,5.3647981045957005 -3.5529466119937507,5.956127943008493c-3.7225090059451675,0.6212152670094967 -5.9205785668000335,-1.6480368840128121 -5.074441592096021,-5.864598588142z" fill-rule="evenodd"/></g><rect fill="rgb(0, 0, 0)" fill-opacity="0" stroke="none" stroke-opacity="0" stroke-width="1" stroke-linecap="butt" stroke-linejoin="miter" stroke-miterlimit="4" x="847" y="428" width="16" height="16" ry="0" rx="0" fill-rule="evenodd"/><g transform="matrix(1.00000000,0.00000000,0.00000000,1.00000000,847.00000000,428.00000000)"><g class="shapebase"/></g></g><g class="shapebase"><g transform="matrix(1.00000000,0.00000000,0.00000000,1.00000000,889.00000000,422.00000000)"><path fill="rgb(204, 204, 255)" fill-opacity="0" stroke="rgb(51, 102, 0)" stroke-opacity="1" stroke-width="3.0" stroke-linecap="butt" stroke-linejoin="miter" stroke-miterlimit="4" path="" stroke-dasharray="none" d="m15.96821564650346,8.631771716970734c-0.4200064788514794,5.913600907312086 -10.090364146495801,10.46903363434256 -14.09550652823812,4.722328974733239c-4.0044012698960305,-5.744297347463044 -1.2602545235794307,-12.31867325561089 5.1395548208433,-13.228411963681607c6.398099086315911,-0.9105561643342946 9.328523501778452,3.2624100179586932 8.95595170739482,8.50608298894837z" fill-rule="evenodd"/><path fill="rgb(51, 102, 0)" fill-opacity="1" stroke="rgb(51, 102, 0)" stroke-opacity="1" stroke-width="3.0" stroke-linecap="butt" stroke-linejoin="miter" stroke-miterlimit="4" path="" stroke-dasharray="none" style="stroke:none;" d="m3.590801500193157,6.284217554559472c0.7552288221394381,-3.7649332101624133 7.02036268711963,-3.299298536435478 8.627388204089772,-0.09152935486649373c1.6070020082676433,3.206713568756178 -0.005289458062329724,5.3647981045957005 -3.5529466119937507,5.956127943008493c-3.7225090059451675,0.6212152670094967 -5.9205785668000335,-1.6480368840128121 -5.074441592096021,-5.864598588142z" fill-rule="evenodd"/></g><rect fill="rgb(0, 0, 0)" fill-opacity="0" stroke="none" stroke-opacity="0" stroke-width="1" stroke-linecap="butt" stroke-linejoin="miter" stroke-miterlimit="4" x="889" y="422" width="16" height="16" ry="0" rx="0" fill-rule="evenodd"/><g transform="matrix(1.00000000,0.00000000,0.00000000,1.00000000,889.00000000,422.00000000)"><g class="shapebase"/></g></g><g class="shapebase"><g transform="matrix(1.00000000,0.00000000,0.00000000,1.00000000,865.00000000,399.00000000)"><path fill="rgb(204, 204, 255)" fill-opacity="0" stroke="rgb(51, 102, 0)" stroke-opacity="1" stroke-width="3.0" stroke-linecap="butt" stroke-linejoin="miter" stroke-miterlimit="4" path="" stroke-dasharray="none" d="m15.96821564650346,8.631771716970734c-0.4200064788514794,5.913600907312086 -10.090364146495801,10.46903363434256 -14.09550652823812,4.722328974733239c-4.0044012698960305,-5.744297347463044 -1.2602545235794307,-12.31867325561089 5.1395548208433,-13.228411963681607c6.398099086315911,-0.9105561643342946 9.328523501778452,3.2624100179586932 8.95595170739482,8.50608298894837z" fill-rule="evenodd"/><path fill="rgb(51, 102, 0)" fill-opacity="1" stroke="rgb(51, 102, 0)" stroke-opacity="1" stroke-width="3.0" stroke-linecap="butt" stroke-linejoin="miter" stroke-miterlimit="4" path="" stroke-dasharray="none" style="stroke:none;" d="m3.590801500193157,6.284217554559472c0.7552288221394381,-3.7649332101624133 7.02036268711963,-3.299298536435478 8.627388204089772,-0.09152935486649373c1.6070020082676433,3.206713568756178 -0.005289458062329724,5.3647981045957005 -3.5529466119937507,5.956127943008493c-3.7225090059451675,0.6212152670094967 -5.9205785668000335,-1.6480368840128121 -5.074441592096021,-5.864598588142z" fill-rule="evenodd"/></g><rect fill="rgb(0, 0, 0)" fill-opacity="0" stroke="none" stroke-opacity="0" stroke-width="1" stroke-linecap="butt" stroke-linejoin="miter" stroke-miterlimit="4" x="865" y="399" width="16" height="16" ry="0" rx="0" fill-rule="evenodd"/><g transform="matrix(1.00000000,0.00000000,0.00000000,1.00000000,865.00000000,399.00000000)"><g class="shapebase"/></g></g><g class="shapebase"><g transform="matrix(1.00000000,0.00000000,0.00000000,1.00000000,865.00000000,450.00000000)"><path fill="rgb(204, 204, 255)" fill-opacity="0" stroke="rgb(51, 102, 0)" stroke-opacity="1" stroke-width="3.0" stroke-linecap="butt" stroke-linejoin="miter" stroke-miterlimit="4" path="" stroke-dasharray="none" d="m15.96821564650346,8.631771716970734c-0.4200064788514794,5.913600907312086 -10.090364146495801,10.46903363434256 -14.09550652823812,4.722328974733239c-4.0044012698960305,-5.744297347463044 -1.2602545235794307,-12.31867325561089 5.1395548208433,-13.228411963681607c6.398099086315911,-0.9105561643342946 9.328523501778452,3.2624100179586932 8.95595170739482,8.50608298894837z" fill-rule="evenodd"/><path fill="rgb(51, 102, 0)" fill-opacity="1" stroke="rgb(51, 102, 0)" stroke-opacity="1" stroke-width="3.0" stroke-linecap="butt" stroke-linejoin="miter" stroke-miterlimit="4" path="" stroke-dasharray="none" style="stroke:none;" d="m3.590801500193157,6.284217554559472c0.7552288221394381,-3.7649332101624133 7.02036268711963,-3.299298536435478 8.627388204089772,-0.09152935486649373c1.6070020082676433,3.206713568756178 -0.005289458062329724,5.3647981045957005 -3.5529466119937507,5.956127943008493c-3.7225090059451675,0.6212152670094967 -5.9205785668000335,-1.6480368840128121 -5.074441592096021,-5.864598588142z" fill-rule="evenodd"/></g><rect fill="rgb(0, 0, 0)" fill-opacity="0" stroke="none" stroke-opacity="0" stroke-width="1" stroke-linecap="butt" stroke-linejoin="miter" stroke-miterlimit="4" x="865" y="450" width="16" height="16" ry="0" rx="0" fill-rule="evenodd"/><g transform="matrix(1.00000000,0.00000000,0.00000000,1.00000000,865.00000000,450.00000000)"><g class="shapebase"/></g></g><g class="shapebase"><g transform="matrix(1.00000000,0.00000000,0.00000000,1.00000000,830.00000000,450.00000000)"><path fill="rgb(204, 204, 255)" fill-opacity="0" stroke="rgb(51, 102, 0)" stroke-opacity="1" stroke-width="3.0" stroke-linecap="butt" stroke-linejoin="miter" stroke-miterlimit="4" path="" stroke-dasharray="none" d="m15.96821564650346,8.631771716970734c-0.4200064788514794,5.913600907312086 -10.090364146495801,10.46903363434256 -14.09550652823812,4.722328974733239c-4.0044012698960305,-5.744297347463044 -1.2602545235794307,-12.31867325561089 5.1395548208433,-13.228411963681607c6.398099086315911,-0.9105561643342946 9.328523501778452,3.2624100179586932 8.95595170739482,8.50608298894837z" fill-rule="evenodd"/><path fill="rgb(51, 102, 0)" fill-opacity="1" stroke="rgb(51, 102, 0)" stroke-opacity="1" stroke-width="3.0" stroke-linecap="butt" stroke-linejoin="miter" stroke-miterlimit="4" path="" stroke-dasharray="none" style="stroke:none;" d="m3.590801500193157,6.284217554559472c0.7552288221394381,-3.7649332101624133 7.02036268711963,-3.299298536435478 8.627388204089772,-0.09152935486649373c1.6070020082676433,3.206713568756178 -0.005289458062329724,5.3647981045957005 -3.5529466119937507,5.956127943008493c-3.7225090059451675,0.6212152670094967 -5.9205785668000335,-1.6480368840128121 -5.074441592096021,-5.864598588142z" fill-rule="evenodd"/></g><rect fill="rgb(0, 0, 0)" fill-opacity="0" stroke="none" stroke-opacity="0" stroke-width="1" stroke-linecap="butt" stroke-linejoin="miter" stroke-miterlimit="4" x="830" y="450" width="16" height="16" ry="0" rx="0" fill-rule="evenodd"/><g transform="matrix(1.00000000,0.00000000,0.00000000,1.00000000,830.00000000,450.00000000)"><g class="shapebase"/></g></g><g class="shapebase"><polyline fill="rgb(255, 255, 255)" fill-opacity="0" stroke="rgb(51, 51, 51)" stroke-opacity="1" stroke-width="2" stroke-linecap="butt" stroke-linejoin="miter" stroke-miterlimit="4" points="0.00000000 0.00000000 808.00000000 436.00000000 0.00000000 0.00000000" fill-rule="evenodd" stroke-dasharray="none" dojoGfxStrokeStyle="solid" style="display: none;"/><path fill="none" fill-opacity="0" stroke="rgb(51, 51, 51)" stroke-opacity="1" stroke-width="2" stroke-linecap="butt" stroke-linejoin="miter" stroke-miterlimit="4" path="" stroke-dasharray="none" d="M777,366 C777,401 792.5,436  808,436"/><path fill="none" fill-opacity="0" stroke="rgb(51, 51, 51)" stroke-opacity="0" stroke-width="10" stroke-linecap="butt" stroke-linejoin="miter" stroke-miterlimit="4" path="" stroke-dasharray="none" style="display: none;" d="M777,366 C777,401 792.5,436  808,436"/><path fill="rgb(250, 250, 250)" fill-opacity="1" stroke="rgb(51, 51, 51)" stroke-opacity="1" stroke-width="2" stroke-linecap="butt" stroke-linejoin="miter" stroke-miterlimit="4" path="" stroke-dasharray="none" fill-rule="evenodd" style="display: none;"/><path fill="rgb(250, 250, 250)" fill-opacity="1" stroke="rgb(51, 51, 51)" stroke-opacity="1" stroke-width="2" stroke-linecap="butt" stroke-linejoin="miter" stroke-miterlimit="4" path="" fill-rule="evenodd" stroke-dasharray="none" style="display: none;"/></g><g class="shapebase"><polyline fill="rgb(255, 255, 255)" fill-opacity="0" stroke="rgb(51, 51, 51)" stroke-opacity="1" stroke-width="2" stroke-linecap="butt" stroke-linejoin="miter" stroke-miterlimit="4" points="0.00000000 0.00000000 980.00000000 364.00000000 0.00000000 0.00000000" fill-rule="evenodd" stroke-dasharray="none" dojoGfxStrokeStyle="solid" style="display: none;"/><path fill="none" fill-opacity="0" stroke="rgb(51, 51, 51)" stroke-opacity="1" stroke-width="2" stroke-linecap="butt" stroke-linejoin="miter" stroke-miterlimit="4" path="" stroke-dasharray="none" d="M924,436 C952,436 980,400  980,364"/><path fill="none" fill-opacity="0" stroke="rgb(51, 51, 51)" stroke-opacity="0" stroke-width="10" stroke-linecap="butt" stroke-linejoin="miter" stroke-miterlimit="4" path="" stroke-dasharray="none" style="display: none;" d="M924,436 C952,436 980,400  980,364"/><path fill="rgb(250, 250, 250)" fill-opacity="1" stroke="rgb(51, 51, 51)" stroke-opacity="1" stroke-width="2" stroke-linecap="butt" stroke-linejoin="miter" stroke-miterlimit="4" path="" stroke-dasharray="none" fill-rule="evenodd" style="display: none;"/><path fill="rgb(250, 250, 250)" fill-opacity="1" stroke="rgb(51, 51, 51)" stroke-opacity="1" stroke-width="2" stroke-linecap="butt" stroke-linejoin="miter" stroke-miterlimit="4" path="" fill-rule="evenodd" stroke-dasharray="none" style="display: none;"/></g><g class="shapebase"><polyline fill="rgb(255, 255, 255)" fill-opacity="0" stroke="rgb(51, 51, 51)" stroke-opacity="1" stroke-width="2" stroke-linecap="butt" stroke-linejoin="miter" stroke-miterlimit="4" points="0.00000000 0.00000000 835.00000000 315.00000000 0.00000000 0.00000000" fill-rule="evenodd" stroke-dasharray="none" dojoGfxStrokeStyle="solid" style="display: none;"/><path fill="none" fill-opacity="0" stroke="rgb(51, 51, 51)" stroke-opacity="1" stroke-width="2" stroke-linecap="butt" stroke-linejoin="miter" stroke-miterlimit="4" path="" stroke-dasharray="none" d="M922,313 C878.5,313 878.5,315  835,315"/><path fill="none" fill-opacity="0" stroke="rgb(51, 51, 51)" stroke-opacity="0" stroke-width="10" stroke-linecap="butt" stroke-linejoin="miter" stroke-miterlimit="4" path="" stroke-dasharray="none" style="display: none;" d="M922,313 C878.5,313 878.5,315  835,315"/><path fill="rgb(250, 250, 250)" fill-opacity="1" stroke="rgb(51, 51, 51)" stroke-opacity="1" stroke-width="2" stroke-linecap="butt" stroke-linejoin="miter" stroke-miterlimit="4" path="" stroke-dasharray="none" fill-rule="evenodd" style="display: none;"/><path fill="rgb(250, 250, 250)" fill-opacity="1" stroke="rgb(51, 51, 51)" stroke-opacity="1" stroke-width="2" stroke-linecap="butt" stroke-linejoin="miter" stroke-miterlimit="4" path="" fill-rule="evenodd" stroke-dasharray="none" style="display: none;"/></g><g class="dark-shape shapebase"><g transform="matrix(1.00000000,0.00000000,0.00000000,1.00000000,874.00000000,290.00000000)"><path fill="rgb(229, 0, 0)" fill-opacity="1" stroke="rgb(229, 0, 0)" stroke-opacity="1" stroke-width="3.0" stroke-linecap="butt" stroke-linejoin="miter" stroke-miterlimit="4" path="" stroke-dasharray="none" style="stroke:none;" d="m1.1538075,47.00000117505188c-0.4676,0 -0.8461925,-0.8912122220196023 -0.8461925,-1.9886401734636585l-0.307615,-43.023014591094196c0,-1.0971341884744212 0.3785925,-1.9883464104940234 0.8461925,-1.9883464104940234c0.4668425,0 0.8460675,0.8912122220196023 0.8460675,1.9883464104940234l0.30774,43.023014591094196c0,1.0974279514440564 -0.3792225,1.9886401734636585 -0.8461925,1.9886401734636585" fill-rule="evenodd"/></g><rect fill="rgb(0, 0, 0)" fill-opacity="0" stroke="none" stroke-opacity="0" stroke-width="1" stroke-linecap="butt" stroke-linejoin="miter" stroke-miterlimit="4" x="874" y="290" width="2" height="47" ry="0" rx="0" fill-rule="evenodd"/><g transform="matrix(1.00000000,0.00000000,0.00000000,1.00000000,874.00000000,290.00000000)"><g class="shapebase"/></g></g><g class="dark-shape shapebase"><g transform="matrix(1.00000000,0.00000000,0.00000000,1.00000000,878.00000000,297.00000000)"><path fill="rgb(229, 0, 0)" fill-opacity="1" stroke="rgb(229, 0, 0)" stroke-opacity="1" stroke-width="3.0" stroke-linecap="butt" stroke-linejoin="miter" stroke-miterlimit="4" path="" stroke-dasharray="none" style="stroke:none;" d="m1.1538075,47.00000117505188c-0.4676,0 -0.8461925,-0.8912122220196023 -0.8461925,-1.9886401734636585l-0.307615,-43.023014591094196c0,-1.0971341884744212 0.3785925,-1.9883464104940234 0.8461925,-1.9883464104940234c0.4668425,0 0.8460675,0.8912122220196023 0.8460675,1.9883464104940234l0.30774,43.023014591094196c0,1.0974279514440564 -0.3792225,1.9886401734636585 -0.8461925,1.9886401734636585" fill-rule="evenodd"/></g><rect fill="rgb(0, 0, 0)" fill-opacity="0" stroke="none" stroke-opacity="0" stroke-width="1" stroke-linecap="butt" stroke-linejoin="miter" stroke-miterlimit="4" x="878" y="297" width="2" height="47" ry="0" rx="0" fill-rule="evenodd"/><g transform="matrix(1.00000000,0.00000000,0.00000000,1.00000000,878.00000000,297.00000000)"><g class="shapebase"/></g></g><g class="shapebase"><g transform="matrix(1.00000000,0.00000000,0.00000000,1.00000000,837.00000000,402.00000000)"><path fill="rgb(204, 204, 255)" fill-opacity="0" stroke="rgb(51, 102, 0)" stroke-opacity="1" stroke-width="3.0" stroke-linecap="butt" stroke-linejoin="miter" stroke-miterlimit="4" path="" stroke-dasharray="none" d="m15.96821564650346,8.631771716970734c-0.4200064788514794,5.913600907312086 -10.090364146495801,10.46903363434256 -14.09550652823812,4.722328974733239c-4.0044012698960305,-5.744297347463044 -1.2602545235794307,-12.31867325561089 5.1395548208433,-13.228411963681607c6.398099086315911,-0.9105561643342946 9.328523501778452,3.2624100179586932 8.95595170739482,8.50608298894837z" fill-rule="evenodd"/><path fill="rgb(51, 102, 0)" fill-opacity="1" stroke="rgb(51, 102, 0)" stroke-opacity="1" stroke-width="3.0" stroke-linecap="butt" stroke-linejoin="miter" stroke-miterlimit="4" path="" stroke-dasharray="none" style="stroke:none;" d="m3.590801500193157,6.284217554559472c0.7552288221394381,-3.7649332101624133 7.02036268711963,-3.299298536435478 8.627388204089772,-0.09152935486649373c1.6070020082676433,3.206713568756178 -0.005289458062329724,5.3647981045957005 -3.5529466119937507,5.956127943008493c-3.7225090059451675,0.6212152670094967 -5.9205785668000335,-1.6480368840128121 -5.074441592096021,-5.864598588142z" fill-rule="evenodd"/></g><rect fill="rgb(0, 0, 0)" fill-opacity="0" stroke="none" stroke-opacity="0" stroke-width="1" stroke-linecap="butt" stroke-linejoin="miter" stroke-miterlimit="4" x="837" y="402" width="16" height="16" ry="0" rx="0" fill-rule="evenodd"/><g transform="matrix(1.00000000,0.00000000,0.00000000,1.00000000,837.00000000,402.00000000)"><g class="shapebase"/></g></g><g class="shapebase"><g transform="matrix(1.00000000,0.00000000,0.00000000,1.00000000,965.00000000,306.00000000)"><path fill="rgb(204, 204, 255)" fill-opacity="0" stroke="rgb(51, 102, 0)" stroke-opacity="1" stroke-width="3.0" stroke-linecap="butt" stroke-linejoin="miter" stroke-miterlimit="4" path="" stroke-dasharray="none" d="m15.96821564650346,8.631771716970734c-0.4200064788514794,5.913600907312086 -10.090364146495801,10.46903363434256 -14.09550652823812,4.722328974733239c-4.0044012698960305,-5.744297347463044 -1.2602545235794307,-12.31867325561089 5.1395548208433,-13.228411963681607c6.398099086315911,-0.9105561643342946 9.328523501778452,3.2624100179586932 8.95595170739482,8.50608298894837z" fill-rule="evenodd"/><path fill="rgb(51, 102, 0)" fill-opacity="1" stroke="rgb(51, 102, 0)" stroke-opacity="1" stroke-width="3.0" stroke-linecap="butt" stroke-linejoin="miter" stroke-miterlimit="4" path="" stroke-dasharray="none" style="stroke:none;" d="m3.590801500193157,6.284217554559472c0.7552288221394381,-3.7649332101624133 7.02036268711963,-3.299298536435478 8.627388204089772,-0.09152935486649373c1.6070020082676433,3.206713568756178 -0.005289458062329724,5.3647981045957005 -3.5529466119937507,5.956127943008493c-3.7225090059451675,0.6212152670094967 -5.9205785668000335,-1.6480368840128121 -5.074441592096021,-5.864598588142z" fill-rule="evenodd"/></g><rect fill="rgb(0, 0, 0)" fill-opacity="0" stroke="none" stroke-opacity="0" stroke-width="1" stroke-linecap="butt" stroke-linejoin="miter" stroke-miterlimit="4" x="965" y="306" width="16" height="16" ry="0" rx="0" fill-rule="evenodd"/><g transform="matrix(1.00000000,0.00000000,0.00000000,1.00000000,965.00000000,306.00000000)"><g class="shapebase"/></g></g><g class="shapebase"><g transform="matrix(1.00000000,0.00000000,0.00000000,1.00000000,994.00000000,339.00000000)"><path fill="rgb(204, 204, 255)" fill-opacity="0" stroke="rgb(51, 102, 0)" stroke-opacity="1" stroke-width="3.0" stroke-linecap="butt" stroke-linejoin="miter" stroke-miterlimit="4" path="" stroke-dasharray="none" d="m15.96821564650346,8.631771716970734c-0.4200064788514794,5.913600907312086 -10.090364146495801,10.46903363434256 -14.09550652823812,4.722328974733239c-4.0044012698960305,-5.744297347463044 -1.2602545235794307,-12.31867325561089 5.1395548208433,-13.228411963681607c6.398099086315911,-0.9105561643342946 9.328523501778452,3.2624100179586932 8.95595170739482,8.50608298894837z" fill-rule="evenodd"/><path fill="rgb(51, 102, 0)" fill-opacity="1" stroke="rgb(51, 102, 0)" stroke-opacity="1" stroke-width="3.0" stroke-linecap="butt" stroke-linejoin="miter" stroke-miterlimit="4" path="" stroke-dasharray="none" style="stroke:none;" d="m3.590801500193157,6.284217554559472c0.7552288221394381,-3.7649332101624133 7.02036268711963,-3.299298536435478 8.627388204089772,-0.09152935486649373c1.6070020082676433,3.206713568756178 -0.005289458062329724,5.3647981045957005 -3.5529466119937507,5.956127943008493c-3.7225090059451675,0.6212152670094967 -5.9205785668000335,-1.6480368840128121 -5.074441592096021,-5.864598588142z" fill-rule="evenodd"/></g><rect fill="rgb(0, 0, 0)" fill-opacity="0" stroke="none" stroke-opacity="0" stroke-width="1" stroke-linecap="butt" stroke-linejoin="miter" stroke-miterlimit="4" x="994" y="339" width="16" height="16" ry="0" rx="0" fill-rule="evenodd"/><g transform="matrix(1.00000000,0.00000000,0.00000000,1.00000000,994.00000000,339.00000000)"><g class="shapebase"/></g></g><g class="shapebase"><g transform="matrix(1.00000000,0.00000000,0.00000000,1.00000000,445.00000000,357.00000000)"><path fill="rgb(204, 204, 255)" fill-opacity="0" stroke="rgb(204, 0, 204)" stroke-opacity="1" stroke-width="3.0" stroke-linecap="butt" stroke-linejoin="miter" stroke-miterlimit="4" path="" stroke-dasharray="none" d="m14.24731404740776,20.918868138487003c26.346046817159362,-38.3660221389015 109.436093839221,-22.577416136932463 113.49388231075541,36.097967280444024c4.049929866165661,58.673128569484255 -40.53256515064085,90.27229849694429 -87.14783549359605,65.44438310300102c-46.60741173758647,-24.81035979249662 -49.7009541516066,-67.52619826293109 -26.346046817159362,-101.54235038344505z" fill-rule="evenodd"/></g><rect fill="rgb(0, 0, 0)" fill-opacity="0" stroke="none" stroke-opacity="0" stroke-width="1" stroke-linecap="butt" stroke-linejoin="miter" stroke-miterlimit="4" x="445" y="357" width="128" height="131" ry="0" rx="0" fill-rule="evenodd"/><g transform="matrix(1.00000000,0.00000000,0.00000000,1.00000000,445.00000000,357.00000000)"><g class="shapebase"/></g></g><g class="shapebase"><g transform="matrix(1.00000000,0.00000000,0.00000000,1.00000000,352.00000000,211.00000000)"><path fill="rgb(204, 204, 255)" fill-opacity="0" stroke="rgb(51, 0, 255)" stroke-opacity="1" stroke-width="3.0" stroke-linecap="butt" stroke-linejoin="miter" stroke-miterlimit="4" path="" stroke-dasharray="none" d="m0,0.15701394585726006l165.17176493955458,-0.9445200984413454l1.4584502816263454,61.25808039376539l-165.82153090742955,-0.18866283839212472z" fill-rule="evenodd"/><path fill="rgb(51, 0, 255)" fill-opacity="1" stroke="rgb(51, 0, 255)" stroke-opacity="1" stroke-width="3.0" stroke-linecap="butt" stroke-linejoin="miter" stroke-miterlimit="4" path="" stroke-dasharray="none" style="stroke:none;" d="m63.248274,-6.1981l38.0093,-2.40741l-0.603966,2.40741l3.76254,0.531494l-2.13063,2.4458l-1.31318,1.85211l3.61304,0l-2.87453,2.84827l2.21614,2.70691l-40.9795,2.25l0.300789,-2.40662l-2.71546,-0.902466l3.31823,-1.50378l-3.85104,-3.49121l3.36488,-1.28223l-2.0523,-1.42377l1.93569,-1.62451z" fill-rule="evenodd"/></g><rect fill="rgb(0, 0, 0)" fill-opacity="0" stroke="none" stroke-opacity="0" stroke-width="1" stroke-linecap="butt" stroke-linejoin="miter" stroke-miterlimit="4" x="352" y="211" width="165" height="60" ry="0" rx="0" fill-rule="evenodd"/><g transform="matrix(1.00000000,0.00000000,0.00000000,1.00000000,352.00000000,211.00000000)"><g class="shapebase"><text fill="rgb(51, 51, 51)" fill-opacity="1" stroke="none" stroke-opacity="0" stroke-width="1" stroke-linecap="butt" stroke-linejoin="miter" stroke-miterlimit="4" x="15" y="26" text-anchor="start" text-decoration="none" rotate="0" kerning="auto" text-rendering="auto" fill-rule="evenodd" font-style="normal" font-variant="normal" font-weight="Normal" font-size="12px" font-family="arial,helvetica,sans-serif"><tspan x="15">Every read receives</tspan><tspan x="15" dy="17">latest data or an error</tspan></text></g></g></g><g class="shapebase"><g transform="matrix(1.00000000,0.00000000,0.00000000,1.00000000,293.00000000,486.00000000)"><path fill="rgb(204, 204, 255)" fill-opacity="0" stroke="rgb(204, 0, 204)" stroke-opacity="1" stroke-width="3.0" stroke-linecap="butt" stroke-linejoin="miter" stroke-miterlimit="4" path="" stroke-dasharray="none" d="m0,0.15701394585726006l196.20403592819818,-0.9445200984413454l1.73246215271978,61.25808039376539l-196.97587913852237,-0.18866283839212472z" fill-rule="evenodd"/><path fill="rgb(204, 0, 204)" fill-opacity="1" stroke="rgb(204, 0, 204)" stroke-opacity="1" stroke-width="3.0" stroke-linecap="butt" stroke-linejoin="miter" stroke-miterlimit="4" path="" stroke-dasharray="none" style="stroke:none;" d="m78.248274,-6.1981l38.0093,-2.40741l-0.603966,2.40741l3.76254,0.531494l-2.13063,2.4458l-1.31318,1.85211l3.61304,0l-2.87453,2.84827l2.21614,2.70691l-40.9795,2.25l0.300789,-2.40662l-2.71546,-0.902466l3.31823,-1.50378l-3.85104,-3.49121l3.36488,-1.28223l-2.0523,-1.42377l1.93569,-1.62451z" fill-rule="evenodd"/></g><rect fill="rgb(0, 0, 0)" fill-opacity="0" stroke="none" stroke-opacity="0" stroke-width="1" stroke-linecap="butt" stroke-linejoin="miter" stroke-miterlimit="4" x="293" y="486" width="196" height="60" ry="0" rx="0" fill-rule="evenodd"/><g transform="matrix(1.00000000,0.00000000,0.00000000,1.00000000,293.00000000,486.00000000)"><g class="shapebase"><text fill="rgb(51, 51, 51)" fill-opacity="1" stroke="none" stroke-opacity="0" stroke-width="1" stroke-linecap="butt" stroke-linejoin="miter" stroke-miterlimit="4" x="15" y="26" text-anchor="start" text-decoration="none" rotate="0" kerning="auto" text-rendering="auto" fill-rule="evenodd" font-style="normal" font-variant="normal" font-weight="Normal" font-size="12px" font-family="arial,helvetica,sans-serif"><tspan x="15">Requests always receive a</tspan><tspan x="15" dy="17">successful response</tspan></text></g></g></g><g class="shapebase"><g transform="matrix(1.00000000,0.00000000,0.00000000,1.00000000,621.00000000,499.00000000)"><path fill="rgb(204, 204, 255)" fill-opacity="0" stroke="rgb(204, 102, 0)" stroke-opacity="1" stroke-width="3.0" stroke-linecap="butt" stroke-linejoin="miter" stroke-miterlimit="4" path="" stroke-dasharray="none" d="m0,0.15701394585726006l214.22277392160413,-0.9445200984413454l1.8915658198062906,61.25808039376539l-215.06550069206014,-0.18866283839212472z" fill-rule="evenodd"/><path fill="rgb(204, 102, 0)" fill-opacity="1" stroke="rgb(204, 102, 0)" stroke-opacity="1" stroke-width="3.0" stroke-linecap="butt" stroke-linejoin="miter" stroke-miterlimit="4" path="" stroke-dasharray="none" style="stroke:none;" d="m87.248274,-6.1981l38.0093,-2.40741l-0.603966,2.40741l3.76254,0.531494l-2.13063,2.4458l-1.31318,1.85211l3.61304,0l-2.87453,2.84827l2.21614,2.70691l-40.9795,2.25l0.300789,-2.40662l-2.71546,-0.902466l3.31823,-1.50378l-3.85104,-3.49121l3.36488,-1.28223l-2.0523,-1.42377l1.93569,-1.62451z" fill-rule="evenodd"/></g><rect fill="rgb(0, 0, 0)" fill-opacity="0" stroke="none" stroke-opacity="0" stroke-width="1" stroke-linecap="butt" stroke-linejoin="miter" stroke-miterlimit="4" x="621" y="499" width="214" height="60" ry="0" rx="0" fill-rule="evenodd"/><g transform="matrix(1.00000000,0.00000000,0.00000000,1.00000000,621.00000000,499.00000000)"><g class="shapebase"><text fill="rgb(51, 51, 51)" fill-opacity="1" stroke="none" stroke-opacity="0" stroke-width="1" stroke-linecap="butt" stroke-linejoin="miter" stroke-miterlimit="4" x="15" y="26" text-anchor="start" text-decoration="none" rotate="0" kerning="auto" text-rendering="auto" fill-rule="evenodd" font-style="normal" font-variant="normal" font-weight="Normal" font-size="12px" font-family="arial,helvetica,sans-serif"><tspan x="15">System remains operational in</tspan><tspan x="15" dy="17">spite of network failures</tspan></text></g></g></g><g class="shapebase"><g transform="matrix(1.00000000,0.00000000,0.00000000,1.00000000,575.00000000,164.00000000)"/><rect fill="rgb(0, 0, 0)" fill-opacity="0" stroke="none" stroke-opacity="0" stroke-width="1" stroke-linecap="butt" stroke-linejoin="miter" stroke-miterlimit="4" x="575" y="164" width="583" height="81" ry="4" rx="4" fill-rule="evenodd"/><g transform="matrix(1.00000000,0.00000000,0.00000000,1.00000000,575.00000000,164.00000000)"><g class="shapebase"><text fill="rgb(51, 51, 51)" fill-opacity="1" stroke="none" stroke-opacity="0" stroke-width="1" stroke-linecap="butt" stroke-linejoin="miter" stroke-miterlimit="4" x="0" y="21" text-anchor="start" text-decoration="none" rotate="0" kerning="auto" text-rendering="auto" fill-rule="evenodd" font-style="normal" font-variant="normal" font-weight="Normal" font-size="12px" font-family="arial,helvetica,sans-serif"><tspan dy="26" font-size="36" font-weight="bold" x="0">Two Out of Three Ain't Bad</tspan><tspan x="0" dy="25">James Richard Steinman, 1977</tspan></text></g></g></g><g class="shapebase"><g transform="matrix(1.00000000,0.00000000,0.00000000,1.00000000,188.00000000,302.00000000)"><path fill="rgb(204, 204, 255)" fill-opacity="0" stroke="rgb(51, 51, 51)" stroke-opacity="1" stroke-width="3.0" stroke-linecap="butt" stroke-linejoin="miter" stroke-miterlimit="4" path="" stroke-dasharray="none" d="m0,0.3768334700574241l204.21236392526748,-2.266848236259229l1.8031748936471181,147.01939294503694l-205.01571094009472,-0.45279081214109934z" fill-rule="evenodd"/><path fill="rgb(51, 51, 51)" fill-opacity="1" stroke="rgb(51, 51, 51)" stroke-opacity="1" stroke-width="3.0" stroke-linecap="butt" stroke-linejoin="miter" stroke-miterlimit="4" path="" stroke-dasharray="none" style="stroke:none;" d="m82.248274,-6.1981l38.0093,-2.40741l-0.603966,2.40741l3.76254,0.531494l-2.13063,2.4458l-1.31318,1.85211l3.61304,0l-2.87453,2.84827l2.21614,2.70691l-40.9795,2.25l0.300789,-2.40662l-2.71546,-0.902466l3.31823,-1.50378l-3.85104,-3.49121l3.36488,-1.28223l-2.0523,-1.42377l1.93569,-1.62451z" fill-rule="evenodd"/></g><rect fill="rgb(0, 0, 0)" fill-opacity="0" stroke="none" stroke-opacity="0" stroke-width="1" stroke-linecap="butt" stroke-linejoin="miter" stroke-miterlimit="4" x="188" y="302" width="204" height="144" ry="0" rx="0" fill-rule="evenodd"/><g transform="matrix(1.00000000,0.00000000,0.00000000,1.00000000,188.00000000,302.00000000)"><g class="shapebase"><text fill="rgb(51, 51, 51)" fill-opacity="1" stroke="none" stroke-opacity="0" stroke-width="1" stroke-linecap="butt" stroke-linejoin="miter" stroke-miterlimit="4" x="15" y="26" text-anchor="start" text-decoration="none" rotate="0" kerning="auto" text-rendering="auto" fill-rule="evenodd" font-style="normal" font-variant="normal" font-weight="Normal" font-size="12px" font-family="arial,helvetica,sans-serif"><tspan dy="8" font-size="18" font-weight="bold" x="15">CAP Theorem:</tspan><tspan x="15" dy="19" font-weight="bold">Only two out of the three</tspan><tspan x="15" dy="17" font-weight="bold">(C/A/P) guarantees can be</tspan><tspan x="15" dy="17" font-weight="bold">provided simultaneously by a</tspan><tspan x="15" dy="17" font-weight="bold">distributed data store.</tspan><tspan x="15" dy="25">Eric Brewer, 1998</tspan></text></g></g></g><g class="shapebase"><g transform="matrix(1.00000000,0.00000000,0.00000000,1.00000000,557.00000000,363.00000000)"><path fill="rgb(204, 204, 255)" fill-opacity="0" stroke="rgb(204, 102, 0)" stroke-opacity="1" stroke-width="3.0" stroke-linecap="butt" stroke-linejoin="miter" stroke-miterlimit="4" path="" stroke-dasharray="none" d="m14.24731404740776,20.918868138487003c26.346046817159362,-38.3660221389015 109.436093839221,-22.577416136932463 113.49388231075541,36.097967280444024c4.049929866165661,58.673128569484255 -40.53256515064085,90.27229849694429 -87.14783549359605,65.44438310300102c-46.60741173758647,-24.81035979249662 -49.7009541516066,-67.52619826293109 -26.346046817159362,-101.54235038344505z" fill-rule="evenodd"/></g><rect fill="rgb(0, 0, 0)" fill-opacity="0" stroke="none" stroke-opacity="0" stroke-width="1" stroke-linecap="butt" stroke-linejoin="miter" stroke-miterlimit="4" x="557" y="363" width="128" height="131" ry="0" rx="0" fill-rule="evenodd"/><g transform="matrix(1.00000000,0.00000000,0.00000000,1.00000000,557.00000000,363.00000000)"><g class="shapebase"/></g></g><g class="shapebase"><g transform="matrix(1.00000000,0.00000000,0.00000000,1.00000000,514.00000000,283.00000000)"/><rect fill="rgb(0, 0, 0)" fill-opacity="0" stroke="none" stroke-opacity="0" stroke-width="1" stroke-linecap="butt" stroke-linejoin="miter" stroke-miterlimit="4" x="514" y="283" width="100" height="90" ry="4" rx="4" fill-rule="evenodd"/><g transform="matrix(1.00000000,0.00000000,0.00000000,1.00000000,514.00000000,283.00000000)"><g class="shapebase"><text fill="rgb(51, 51, 51)" fill-opacity="1" stroke="none" stroke-opacity="0" stroke-width="1" stroke-linecap="butt" stroke-linejoin="miter" stroke-miterlimit="4" x="50" y="21" text-anchor="middle" text-decoration="none" rotate="0" kerning="auto" text-rendering="auto" fill-rule="evenodd" font-style="normal" font-variant="normal" font-weight="Normal" font-size="12px" font-family="arial,helvetica,sans-serif" class="svg-txt-center"><tspan x="50" font-weight="bold">Consistency</tspan><tspan dy="51" font-size="36" font-weight="bold" x="50">C</tspan></text></g></g></g><g class="shapebase"><g transform="matrix(1.00000000,0.00000000,0.00000000,1.00000000,455.00000000,378.00000000)"/><rect fill="rgb(0, 0, 0)" fill-opacity="0" stroke="none" stroke-opacity="0" stroke-width="1" stroke-linecap="butt" stroke-linejoin="miter" stroke-miterlimit="4" x="455" y="378" width="100" height="81" ry="4" rx="4" fill-rule="evenodd"/><g transform="matrix(1.00000000,0.00000000,0.00000000,1.00000000,455.00000000,378.00000000)"><g class="shapebase"><text fill="rgb(51, 51, 51)" fill-opacity="1" stroke="none" stroke-opacity="0" stroke-width="1" stroke-linecap="butt" stroke-linejoin="miter" stroke-miterlimit="4" x="50" y="21" text-anchor="middle" text-decoration="none" rotate="0" kerning="auto" text-rendering="auto" fill-rule="evenodd" font-style="normal" font-variant="normal" font-weight="Normal" font-size="12px" font-family="arial,helvetica,sans-serif" class="svg-txt-center"><tspan dy="26" font-size="36" font-weight="bold" x="50">A</tspan><tspan x="50" dy="25" font-weight="bold">High Availability</tspan></text></g></g></g><g class="shapebase"><g transform="matrix(1.00000000,0.00000000,0.00000000,1.00000000,578.00000000,379.00000000)"/><rect fill="rgb(0, 0, 0)" fill-opacity="0" stroke="none" stroke-opacity="0" stroke-width="1" stroke-linecap="butt" stroke-linejoin="miter" stroke-miterlimit="4" x="578" y="379" width="100" height="98" ry="4" rx="4" fill-rule="evenodd"/><g transform="matrix(1.00000000,0.00000000,0.00000000,1.00000000,578.00000000,379.00000000)"><g class="shapebase"><text fill="rgb(51, 51, 51)" fill-opacity="1" stroke="none" stroke-opacity="0" stroke-width="1" stroke-linecap="butt" stroke-linejoin="miter" stroke-miterlimit="4" x="50" y="21" text-anchor="middle" text-decoration="none" rotate="0" kerning="auto" text-rendering="auto" fill-rule="evenodd" font-style="normal" font-variant="normal" font-weight="Normal" font-size="12px" font-family="arial,helvetica,sans-serif" class="svg-txt-center"><tspan dy="26" font-size="36" font-weight="bold" x="50">P</tspan><tspan x="50" dy="25" font-weight="bold">Partition</tspan><tspan x="50" dy="17" font-weight="bold">Tolerance</tspan></text></g></g></g><g class="shapebase"><g transform="matrix(1.00000000,0.00000000,0.00000000,1.00000000,367.00000000,593.00000000)"/><rect fill="rgb(0, 0, 0)" fill-opacity="0" stroke="none" stroke-opacity="0" stroke-width="1" stroke-linecap="butt" stroke-linejoin="miter" stroke-miterlimit="4" x="367" y="593" width="474" height="51" ry="4" rx="4" fill-rule="evenodd"/><g transform="matrix(1.00000000,0.00000000,0.00000000,1.00000000,367.00000000,593.00000000)"><g class="shapebase"><text fill="rgb(51, 51, 51)" fill-opacity="1" stroke="none" stroke-opacity="0" stroke-width="1" stroke-linecap="butt" stroke-linejoin="miter" stroke-miterlimit="4" x="237" y="21" text-anchor="middle" text-decoration="none" rotate="0" kerning="auto" text-rendering="auto" fill-rule="evenodd" font-style="normal" font-variant="normal" font-weight="Normal" font-size="12px" font-family="arial,helvetica,sans-serif" class="svg-txt-center"><tspan x="237">Typical basic RDBMS: </tspan><tspan font-weight="bold">CA</tspan><tspan> -- Typical cache-style DB: </tspan><tspan font-weight="bold">CP</tspan><tspan> -- Eventual Consistency: </tspan><tspan font-weight="bold">AP</tspan><tspan x="237" dy="17">Honorary mention: MongoDB supports ACID guarantees (CP)</tspan></text></g></g></g><g class="shapebase"><g transform="matrix(1.00000000,0.00000000,0.00000000,1.00000000,367.00000000,589.00000000)"><path fill="rgb(204, 204, 255)" fill-opacity="0" stroke="rgb(51, 51, 51)" stroke-opacity="1" stroke-width="3.0" stroke-linecap="butt" stroke-linejoin="miter" stroke-miterlimit="4" path="" stroke-dasharray="none" d="m0,0.14131255127153403l474.49343382635686,-0.8500680885972108l4.1897298999447745,55.132272354388846l-476.3600342431613,-0.16979655455291223z" fill-rule="evenodd"/><path fill="rgb(51, 51, 51)" fill-opacity="1" stroke="rgb(51, 51, 51)" stroke-opacity="1" stroke-width="3.0" stroke-linecap="butt" stroke-linejoin="miter" stroke-miterlimit="4" path="" stroke-dasharray="none" style="stroke:none;" d="m217.248274,-6.1981l38.0093,-2.40741l-0.603966,2.40741l3.76254,0.531494l-2.13063,2.4458l-1.31318,1.85211l3.61304,0l-2.87453,2.84827l2.21614,2.70691l-40.9795,2.25l0.300789,-2.40662l-2.71546,-0.902466l3.31823,-1.50378l-3.85104,-3.49121l3.36488,-1.28223l-2.0523,-1.42377l1.93569,-1.62451z" fill-rule="evenodd"/></g><rect fill="rgb(0, 0, 0)" fill-opacity="0" stroke="none" stroke-opacity="0" stroke-width="1" stroke-linecap="butt" stroke-linejoin="miter" stroke-miterlimit="4" x="367" y="589" width="474" height="54" ry="0" rx="0" fill-rule="evenodd"/><g transform="matrix(1.00000000,0.00000000,0.00000000,1.00000000,367.00000000,589.00000000)"><g class="shapebase"/></g></g></g><g/><g/></g></svg>