<svg xmlns:xlink="http://www.w3.org/1999/xlink" xmlns="http://www.w3.org/2000/svg" width="1251px" height="758px" viewBox="0 0 1251 758" style="overflow: hidden; display: block; width: 1251px; height: 758px;"><defs><path fill="rgb(0,0,0)" stroke="rgb(0,0,0)" d="M 0,0 L 10,-5 L 5,0 L 10,5 Z" fill-opacity="1" stroke-opacity="1" stroke-width="1" stroke-linecap="butt" stroke-linejoin="miter" stroke-miterlimit="10" id="ygc368_0"/><path fill="rgb(0,0,0)" stroke="rgb(0,0,0)" d="M 0,0 L 10,-5 L 5,0 L 10,5 Z" fill-opacity="1" stroke-opacity="1" stroke-width="1" stroke-linecap="butt" stroke-linejoin="miter" stroke-miterlimit="10" id="ygc368_1"/><path fill="rgb(0,0,0)" stroke="rgb(0,0,0)" d="M 0,0 L 10,-5 L 5,0 L 10,5 Z" fill-opacity="1" stroke-opacity="1" stroke-width="1" stroke-linecap="butt" stroke-linejoin="miter" stroke-miterlimit="10" id="ygc368_2"/><path fill="rgb(0,0,0)" stroke="rgb(0,0,0)" d="M 0,0 L 10,-5 L 5,0 L 10,5 Z" fill-opacity="1" stroke-opacity="1" stroke-width="1" stroke-linecap="butt" stroke-linejoin="miter" stroke-miterlimit="10" id="ygc368_3"/><path fill="rgb(0,0,0)" stroke="rgb(0,0,0)" d="M 0,0 L 10,-5 L 5,0 L 10,5 Z" fill-opacity="1" stroke-opacity="1" stroke-width="1" stroke-linecap="butt" stroke-linejoin="miter" stroke-miterlimit="10" id="ygc368_4"/><path fill="rgb(0,0,0)" stroke="rgb(0,0,0)" d="M 0,0 L 10,-5 L 5,0 L 10,5 Z" fill-opacity="1" stroke-opacity="1" stroke-width="1" stroke-linecap="butt" stroke-linejoin="miter" stroke-miterlimit="10" id="ygc368_5"/></defs><g style="pointer-events:visiblePainted" transform="translate(321.6311571457006 331.9981536865235)" image-rendering="auto" shape-rendering="auto"><g><path fill="none" stroke="rgb(0,0,0)" d="M 157.5,-200.9981536865235 L 157.5,-173.9981536865235" stroke-opacity="1" stroke-width="0.75" stroke-linecap="butt" stroke-linejoin="miter" stroke-miterlimit="10"/><use xlink:href="#ygc368_0" transform="matrix(0 -1 1 0 157.5 -168.998)" style="pointer-events: none;"/><use xlink:href="#ygc368_0" transform="matrix(0 1 -1 0 157.5 -205.998)" style="pointer-events: none;"/></g><g><path fill="none" stroke="rgb(0,0,0)" d="M 277,-130.99815368652352 L 332.5,-130.99815368652352 L 332.5,52.00184631347639" stroke-opacity="1" stroke-width="0.75" stroke-linecap="butt" stroke-linejoin="miter" stroke-miterlimit="10"/><use xlink:href="#ygc368_0" transform="matrix(0 -1 1 0 332.5 57.0018)" style="pointer-events: none;"/><use xlink:href="#ygc368_0" transform="translate(272 -130.998)" style="pointer-events: none;"/></g><g><path fill="none" stroke="rgb(0,0,0)" d="M 157.5,-92.99815368652355 L 157.5,-61.99815368652355" stroke-opacity="1" stroke-width="0.75" stroke-linecap="butt" stroke-linejoin="miter" stroke-miterlimit="10"/><use xlink:href="#ygc368_1" transform="matrix(0 -1 1 0 157.5 -56.9982)" style="pointer-events: none;"/></g><g><path fill="none" stroke="rgb(0,0,0)" d="M 332.5,138.00184631347634 L 332.5,231.00184631347628 L 301,231.00184631347628" stroke-opacity="1" stroke-width="0.75" stroke-linecap="butt" stroke-linejoin="miter" stroke-miterlimit="10"/><use xlink:href="#ygc368_0" transform="translate(296 231.002)" style="pointer-events: none;"/><use xlink:href="#ygc368_0" transform="matrix(0 1 -1 0 332.5 133.002)" style="pointer-events: none;"/></g><g><path fill="none" stroke="rgb(0,0,0)" d="M 272,-243.99815368652347 L 383,-243.99815368652347" stroke-opacity="1" stroke-width="2" stroke-dasharray="0.01,4" stroke-dashoffset="0" stroke-linecap="square" stroke-linejoin="miter" stroke-miterlimit="10"/><use xlink:href="#ygc368_2" transform="matrix(-1.2 0 0 -1.2 389 -243.998)" style="pointer-events: none;"/></g><g><path fill="none" stroke="rgb(0,0,0)" d="M 504.49999999999994,-205.9981536865235 L 504.5,-174.9981536865235" stroke-opacity="1" stroke-width="0.75" stroke-linecap="butt" stroke-linejoin="miter" stroke-miterlimit="10"/><use xlink:href="#ygc368_1" transform="matrix(-1.83366e-15 -1 1 -1.83366e-15 504.5 -169.998)" style="pointer-events: none;"/></g><g><path fill="none" stroke="rgb(0,0,0)" d="M 765.5,301.0018463134764 L 765.5,27.001846313476392" stroke-opacity="1" stroke-width="2" stroke-dasharray="4,4" stroke-dashoffset="2" stroke-linecap="square" stroke-linejoin="miter" stroke-miterlimit="10"/><use xlink:href="#ygc368_3" transform="matrix(0 1.2 -1.2 0 765.5 21.0018)" style="pointer-events: none;"/></g><g><path fill="none" stroke="rgb(0,0,0)" d="M 765.5,-55.99815368652355 L 765.5,-85.99815368652355" stroke-opacity="1" stroke-width="2" stroke-dasharray="4,4" stroke-dashoffset="2" stroke-linecap="square" stroke-linejoin="miter" stroke-miterlimit="10"/><use xlink:href="#ygc368_4" transform="matrix(0 1.2 -1.2 0 765.5 -91.9982)" style="pointer-events: none;"/></g><g><path fill="none" stroke="rgb(0,0,0)" d="M 765.5,-168.9981536865235 L 765.5,-198.99815368652355" stroke-opacity="1" stroke-width="2" stroke-dasharray="4,4" stroke-dashoffset="2" stroke-linecap="square" stroke-linejoin="miter" stroke-miterlimit="10"/><use xlink:href="#ygc368_5" transform="matrix(0 1.2 -1.2 0 765.5 -204.998)" style="pointer-events: none;"/></g><path fill="rgb(255,140,0)" stroke="rgb(0,0,0)" d="M 114.5,0 L 229,37.999999999999964 L 114.50000000000003,75.99999999999994 L 0,37.99999999999998 Z" fill-opacity="1" stroke-opacity="1" stroke-width="4" stroke-linecap="butt" stroke-linejoin="miter" stroke-miterlimit="10" transform="translate(43 -281.99815368652344)"/><rect fill="rgb(0,187,250)" stroke="rgb(0,0,0)" stroke-opacity="1" stroke-width="4" stroke-linecap="butt" stroke-linejoin="miter" stroke-miterlimit="10" fill-opacity="1" height="76" y="-168.998" width="229" x="43"/><rect fill="rgb(0,187,250)" stroke="rgb(0,0,0)" stroke-opacity="1" stroke-width="4" stroke-linecap="butt" stroke-linejoin="miter" stroke-miterlimit="10" fill-opacity="1" height="76" y="57.0018" width="229" x="218"/><rect fill="rgb(0,187,250)" stroke="rgb(0,0,0)" stroke-opacity="1" stroke-width="4" stroke-linecap="butt" stroke-linejoin="miter" stroke-miterlimit="10" fill-opacity="1" height="76" y="-55.9982" width="229" x="43"/><path fill="rgb(255,140,0)" stroke="rgb(0,0,0)" d="M 114.5,0 L 229,37.999999999999964 L 114.50000000000003,75.99999999999994 L 0,37.99999999999998 Z" fill-opacity="1" stroke-opacity="1" stroke-width="4" stroke-linecap="butt" stroke-linejoin="miter" stroke-miterlimit="10" transform="translate(390 -281.99815368652344)"/><g><svg xmlns="http://www.w3.org/2000/svg" xmlns:xlink="http://www.w3.org/1999/xlink" version="1.1" id="Ebene_4" x="19" y="170.00184631347656" width="277" height="122" viewBox="0 0 70 70" enable-background="new 0 0 70 70" xml:space="preserve" preserveAspectRatio="none">
<g id="disk_3_ygc0_">
	
		<linearGradient id="SVGID_1__ygc0_" gradientUnits="userSpaceOnUse" x1="658.1758" y1="-969.7573" x2="697.4258" y2="-969.7573" gradientTransform="matrix(1 0 0 -1 -642.8008 -920.7012)">
		<stop offset="0" style="stop-color:#3C89C9"/>
		<stop offset="0.1482" style="stop-color:#60A6DD"/>
		<stop offset="0.3113" style="stop-color:#81C1F0"/>
		<stop offset="0.4476" style="stop-color:#95D1FB"/>
		<stop offset="0.5394" style="stop-color:#9CD7FF"/>
		<stop offset="0.636" style="stop-color:#98D4FD"/>
		<stop offset="0.7293" style="stop-color:#8DCAF6"/>
		<stop offset="0.8214" style="stop-color:#79BBEB"/>
		<stop offset="0.912" style="stop-color:#5EA5DC"/>
		<stop offset="1" style="stop-color:#3C89C9"/>
	</linearGradient>
	<path fill="url(#SVGID_1__ygc0_)" d="M35,46.15c-10.838,0-19.625-1.875-19.625-4.188v10c0,2.313,8.787,4.188,19.625,4.188   c10.839,0,19.625-1.875,19.625-4.188v-10C54.625,44.275,45.839,46.15,35,46.15z"/>
	
		<linearGradient id="SVGID_2__ygc0_" gradientUnits="userSpaceOnUse" x1="658.1758" y1="-963.7573" x2="697.4258" y2="-963.7573" gradientTransform="matrix(1 0 0 -1 -642.8008 -920.7012)">
		<stop offset="0" style="stop-color:#9CD7FF"/>
		<stop offset="0.0039" style="stop-color:#9DD7FF"/>
		<stop offset="0.2273" style="stop-color:#BDE5FF"/>
		<stop offset="0.4138" style="stop-color:#D1EEFF"/>
		<stop offset="0.5394" style="stop-color:#D9F1FF"/>
		<stop offset="0.6155" style="stop-color:#D5EFFE"/>
		<stop offset="0.6891" style="stop-color:#C9E7FA"/>
		<stop offset="0.7617" style="stop-color:#B6DAF3"/>
		<stop offset="0.8337" style="stop-color:#9AC8EA"/>
		<stop offset="0.9052" style="stop-color:#77B0DD"/>
		<stop offset="0.9754" style="stop-color:#4D94CF"/>
		<stop offset="1" style="stop-color:#3C89C9"/>
	</linearGradient>
	<path fill="url(#SVGID_2__ygc0_)" d="M35,46.15c10.839,0,19.625-1.875,19.625-4.188l-1.229-2c0,2.168-8.235,3.927-18.396,3.927   c-9.481,0-17.396-1.959-18.396-3.927l-1.229,2C15.375,44.275,24.162,46.15,35,46.15z"/>
	<path fill="#3C89C9" d="M35,35.855c10.16,0,19.625,2.775,19.625,2.775c-0.375,2.721-5.367,5.438-19.554,5.438   c-12.125,0-18.467-2.484-19.541-4.918C15.248,38.512,24.84,35.855,35,35.855z"/>
</g>
<g id="disk_2_ygc0_">
	
		<linearGradient id="SVGID_3__ygc0_" gradientUnits="userSpaceOnUse" x1="658.1758" y1="-956.3076" x2="697.4258" y2="-956.3076" gradientTransform="matrix(1 0 0 -1 -642.8008 -920.7012)">
		<stop offset="0" style="stop-color:#3C89C9"/>
		<stop offset="0.1482" style="stop-color:#60A6DD"/>
		<stop offset="0.3113" style="stop-color:#81C1F0"/>
		<stop offset="0.4476" style="stop-color:#95D1FB"/>
		<stop offset="0.5394" style="stop-color:#9CD7FF"/>
		<stop offset="0.636" style="stop-color:#98D4FD"/>
		<stop offset="0.7293" style="stop-color:#8DCAF6"/>
		<stop offset="0.8214" style="stop-color:#79BBEB"/>
		<stop offset="0.912" style="stop-color:#5EA5DC"/>
		<stop offset="1" style="stop-color:#3C89C9"/>
	</linearGradient>
	<path fill="url(#SVGID_3__ygc0_)" d="M35,32.7c-10.838,0-19.625-1.875-19.625-4.188v10c0,2.313,8.787,4.188,19.625,4.188   c10.839,0,19.625-1.875,19.625-4.188v-10C54.625,30.825,45.839,32.7,35,32.7z"/>
	
		<linearGradient id="SVGID_4__ygc0_" gradientUnits="userSpaceOnUse" x1="658.1758" y1="-950.3076" x2="697.4258" y2="-950.3076" gradientTransform="matrix(1 0 0 -1 -642.8008 -920.7012)">
		<stop offset="0" style="stop-color:#9CD7FF"/>
		<stop offset="0.0039" style="stop-color:#9DD7FF"/>
		<stop offset="0.2273" style="stop-color:#BDE5FF"/>
		<stop offset="0.4138" style="stop-color:#D1EEFF"/>
		<stop offset="0.5394" style="stop-color:#D9F1FF"/>
		<stop offset="0.6155" style="stop-color:#D5EFFE"/>
		<stop offset="0.6891" style="stop-color:#C9E7FA"/>
		<stop offset="0.7617" style="stop-color:#B6DAF3"/>
		<stop offset="0.8337" style="stop-color:#9AC8EA"/>
		<stop offset="0.9052" style="stop-color:#77B0DD"/>
		<stop offset="0.9754" style="stop-color:#4D94CF"/>
		<stop offset="1" style="stop-color:#3C89C9"/>
	</linearGradient>
	<path fill="url(#SVGID_4__ygc0_)" d="M35,32.7c10.839,0,19.625-1.875,19.625-4.188l-1.229-2c0,2.168-8.235,3.926-18.396,3.926   c-9.481,0-17.396-1.959-18.396-3.926l-1.229,2C15.375,30.825,24.162,32.7,35,32.7z"/>
	<path fill="#3C89C9" d="M34.851,22.406c10.161,0,19.625,2.775,19.625,2.775c-0.375,2.721-5.367,5.438-19.555,5.438   c-12.125,0-18.467-2.485-19.541-4.918C15.098,25.061,24.691,22.406,34.851,22.406z"/>
</g>
<g id="disk_1_ygc0_">
	
		<linearGradient id="SVGID_5__ygc0_" gradientUnits="userSpaceOnUse" x1="658.1758" y1="-943.1074" x2="697.4258" y2="-943.1074" gradientTransform="matrix(1 0 0 -1 -642.8008 -920.7012)">
		<stop offset="0" style="stop-color:#3C89C9"/>
		<stop offset="0.1482" style="stop-color:#60A6DD"/>
		<stop offset="0.3113" style="stop-color:#81C1F0"/>
		<stop offset="0.4476" style="stop-color:#95D1FB"/>
		<stop offset="0.5394" style="stop-color:#9CD7FF"/>
		<stop offset="0.636" style="stop-color:#98D4FD"/>
		<stop offset="0.7293" style="stop-color:#8DCAF6"/>
		<stop offset="0.8214" style="stop-color:#79BBEB"/>
		<stop offset="0.912" style="stop-color:#5EA5DC"/>
		<stop offset="1" style="stop-color:#3C89C9"/>
	</linearGradient>
	<path fill="url(#SVGID_5__ygc0_)" d="M35,19.5c-10.838,0-19.625-1.875-19.625-4.188v10c0,2.313,8.787,4.188,19.625,4.188   c10.839,0,19.625-1.875,19.625-4.188v-10C54.625,17.625,45.839,19.5,35,19.5z"/>
	
		<linearGradient id="SVGID_6__ygc0_" gradientUnits="userSpaceOnUse" x1="658.1758" y1="-937.1074" x2="697.4258" y2="-937.1074" gradientTransform="matrix(1 0 0 -1 -642.8008 -920.7012)">
		<stop offset="0" style="stop-color:#9CD7FF"/>
		<stop offset="0.0039" style="stop-color:#9DD7FF"/>
		<stop offset="0.2273" style="stop-color:#BDE5FF"/>
		<stop offset="0.4138" style="stop-color:#D1EEFF"/>
		<stop offset="0.5394" style="stop-color:#D9F1FF"/>
		<stop offset="0.6155" style="stop-color:#D5EFFE"/>
		<stop offset="0.6891" style="stop-color:#C9E7FA"/>
		<stop offset="0.7617" style="stop-color:#B6DAF3"/>
		<stop offset="0.8337" style="stop-color:#9AC8EA"/>
		<stop offset="0.9052" style="stop-color:#77B0DD"/>
		<stop offset="0.9754" style="stop-color:#4D94CF"/>
		<stop offset="1" style="stop-color:#3C89C9"/>
	</linearGradient>
	<path fill="url(#SVGID_6__ygc0_)" d="M35,19.5c10.839,0,19.625-1.875,19.625-4.188l-1.229-2c0,2.168-8.235,3.926-18.396,3.926   c-9.481,0-17.396-1.959-18.396-3.926l-1.229,2C15.375,17.625,24.162,19.5,35,19.5z"/>
	
		<linearGradient id="SVGID_7__ygc0_" gradientUnits="userSpaceOnUse" x1="659.4043" y1="-934.0142" x2="696.1973" y2="-934.0142" gradientTransform="matrix(1 0 0 -1 -642.8008 -920.7012)">
		<stop offset="0" style="stop-color:#9CD7FF"/>
		<stop offset="1" style="stop-color:#3C89C9"/>
	</linearGradient>
	<ellipse fill="url(#SVGID_7__ygc0_)" cx="35" cy="13.313" rx="18.396" ry="3.926"/>
</g>
<path opacity="0.24" fill="#FFFFFF" enable-background="new    " d="M46.415,55.369c0,0-4.354,0.664-7.29,0.781  c-3.125,0.125-8.952,0-8.952,0l-2.384-10.292l0.044-2.108l-1.251-1.154l-1.418-10.185l-0.082-0.119l-0.207-2.375l-1.65-1.254  L20.704,18.18c0,0,4.213,0.903,7.234,1.07s8.375,0.25,8.375,0.25l3,9.875l-0.25,1.313l1.063,2.168l2.312,9.645l-0.521,1.416  l1.46,1.834L46.415,55.369z"/>
</svg></g><rect fill="rgb(0,187,250)" stroke="rgb(0,0,0)" stroke-opacity="1" stroke-width="4" stroke-linecap="butt" stroke-linejoin="miter" stroke-miterlimit="10" fill-opacity="1" height="76" y="-168.998" width="229" x="390"/><rect fill="rgb(0,187,250)" stroke="rgb(0,0,0)" stroke-opacity="1" stroke-width="4" stroke-linecap="butt" stroke-linejoin="miter" stroke-miterlimit="10" fill-opacity="1" height="76" y="301.002" width="229" x="651"/><rect fill="rgb(215,255,166)" stroke="rgb(0,0,0)" stroke-opacity="1" stroke-width="4" stroke-linecap="butt" stroke-linejoin="miter" stroke-miterlimit="10" fill-opacity="1" height="76" y="-55.9982" width="229" x="651"/><rect fill="rgb(215,255,166)" stroke="rgb(0,0,0)" stroke-opacity="1" stroke-width="4" stroke-linecap="butt" stroke-linejoin="miter" stroke-miterlimit="10" fill-opacity="1" height="76" y="-168.998" width="229" x="651"/><rect fill="rgb(215,255,166)" stroke="rgb(0,0,0)" stroke-opacity="1" stroke-width="4" stroke-linecap="butt" stroke-linejoin="miter" stroke-miterlimit="10" fill-opacity="1" height="76" y="-281.998" width="229" x="651"/><g transform="translate(267.42591158776753 -226.93565368652344)"><text font-family="Arial" font-size="14px" font-style="normal" font-weight="normal" text-anchor="start" fill="rgb(0,0,0)" fill-opacity="1" dy="1em" transform="translate(0 0)">Tracking requested?</text></g><g transform="translate(43 -281.99815368652344)"><text font-family="Arial" font-size="20px" font-style="normal" font-weight="normal" text-anchor="middle" fill="rgb(0,0,0)" fill-opacity="1" dy="1em" transform="translate(114.5 26.82812499999997)">Query Data</text></g><g transform="translate(-184.2701282205175 -257.81846618652344)"><text font-family="Arial" font-size="25px" font-style="normal" font-weight="bold" text-anchor="start" fill="rgb(0,0,0)" fill-opacity="1" dy="1em" transform="translate(0 0)">webapp (client)</text></g><g transform="translate(-125.76076483647722 -142.81815368652315)"><text font-family="Arial" font-size="25px" font-style="normal" font-weight="bold" text-anchor="start" fill="rgb(0,0,0)" fill-opacity="1" dy="1em" transform="translate(0 0)">web-proxy</text></g><g transform="translate(-163.33621613179815 80.18184631347685)"><text font-family="Arial" font-size="25px" font-style="normal" font-weight="bold" text-anchor="start" fill="rgb(0,0,0)" fill-opacity="1" dy="1em" transform="translate(0 0)">query-service</text></g><g transform="translate(-84.04688664410828 216.18184631347867)"><text font-family="Arial" font-size="25px" font-style="normal" font-weight="bold" text-anchor="start" fill="rgb(0,0,0)" fill-opacity="1" dy="1em" transform="translate(0 0)">mongo</text></g><g transform="translate(-271.6311571457006 -30.818153686523146)"><text font-family="Arial" font-size="25px" font-style="normal" font-weight="bold" text-anchor="start" fill="rgb(0,0,0)" fill-opacity="1" dy="1em" transform="translate(0 0)">query-change-detector</text></g><g transform="translate(-213.33915586722196 323.18184631347685)"><text font-family="Arial" font-size="25px" font-style="normal" font-weight="bold" text-anchor="start" fill="rgb(0,0,0)" fill-opacity="1" dy="1em" transform="translate(0 0)">command-service</text></g><g transform="translate(43 -168.9981536865235)"><text font-family="Arial" font-size="20px" font-style="normal" font-weight="normal" text-anchor="middle" fill="rgb(0,0,0)" fill-opacity="1" dy="1em" transform="translate(114.5 26.82812499999997)">Handle REST request</text></g><g transform="translate(218 57.00184631347639)"><text font-family="Arial" font-size="20px" font-style="normal" font-weight="normal" text-anchor="middle" fill="rgb(0,0,0)" fill-opacity="1" dy="1em" transform="translate(114.5 26.82812499999997)">Perform query</text></g><g transform="translate(43 -55.99815368652355)"><text font-family="Arial" font-size="20px" font-style="normal" font-weight="normal" text-anchor="middle" fill="rgb(0,0,0)" fill-opacity="1" dy="1em" transform="translate(114.5 26.82812499999997)">Register query</text></g><g transform="translate(390 -281.99815368652344)"><text font-family="Arial" font-size="20px" font-style="normal" font-weight="normal" text-anchor="middle" fill="rgb(0,0,0)" fill-opacity="1" dy="1em" transform="translate(114.5 26.82812499999997)">Query Data</text></g><g transform="translate(19 170.00184631347634)"><text font-family="Arial" font-size="20px" font-style="normal" font-weight="normal" text-anchor="middle" fill="rgb(0,0,0)" fill-opacity="1" dy="1em" transform="translate(138.5 49.82812499999994)">Return data</text></g><g transform="translate(390 -168.9981536865235)"><text font-family="Arial" font-size="20px" font-style="normal" font-weight="normal" text-anchor="middle" fill="rgb(0,0,0)" fill-opacity="1" dy="1em" transform="translate(114.5 26.82812499999997)">Register socket.io client</text></g><g transform="translate(651 301.0018463134764)"><text font-family="Arial" font-size="20px" font-style="normal" font-weight="normal" text-anchor="middle" fill="rgb(0,0,0)" fill-opacity="1" dy="1em" transform="translate(114.5 26.82812499999997)">Raise domain event</text></g><g transform="translate(651 -55.99815368652355)"><text font-family="Arial" font-size="20px" font-style="normal" font-weight="normal" text-anchor="middle" fill="rgb(0,0,0)" fill-opacity="1" transform="translate(114.5 11.828124999999972)"><tspan dy="1em" x="0">Handle domain event/</tspan><tspan dy="1.5em" x="0">check queries</tspan></text></g><g transform="translate(651 -168.9981536865235)"><text font-family="Arial" font-size="20px" font-style="normal" font-weight="normal" text-anchor="middle" fill="rgb(0,0,0)" fill-opacity="1" transform="translate(114.5 11.828124999999972)"><tspan dy="1em" x="0">Handle change</tspan><tspan dy="1.5em" x="0">notification</tspan></text></g><g transform="translate(651 -281.9981536865235)"><text font-family="Arial" font-size="20px" font-style="normal" font-weight="normal" text-anchor="middle" fill="rgb(0,0,0)" fill-opacity="1" transform="translate(114.5 11.828124999999972)"><tspan dy="1em" x="0">Handle change</tspan><tspan dy="1.5em" x="0">notification</tspan></text></g></g></svg>